<?xml version="1.0" encoding="UTF-8" standalone="no"?>
<svg width="47px" height="18px" viewBox="0 0 47 18" version="1.1" xmlns="http://www.w3.org/2000/svg" xmlns:xlink="http://www.w3.org/1999/xlink" xmlns:sketch="http://www.bohemiancoding.com/sketch/ns">
    <!-- Generator: Sketch 3.4 (15588) - http://www.bohemiancoding.com/sketch -->
    <title>screen-lock-portrait + laptop + tv</title>
    <desc>Created with Sketch.</desc>
    <defs></defs>
    <g id="Page-1" stroke="none" stroke-width="1" fill="none" fill-rule="evenodd" sketch:type="MSPage">
        <g id="screen-lock-portrait-+-laptop-+-tv" sketch:type="MSLayerGroup" fill="#000000">
            <g id="screen-lock-portrait" transform="translate(41.000000, 9.000000)" sketch:type="MSShapeGroup">
                <path d="M5.14285714,0 L0.857142857,0 C0.385714286,0 0,0.368181818 0,0.818181818 L0,8.18181818 C0,8.63181818 0.385714286,9 0.857142857,9 L5.14285714,9 C5.61428571,9 6,8.63181818 6,8.18181818 L6,0.818181818 C6,0.368181818 5.61428571,0 5.14285714,0 L5.14285714,0 Z M0.857142857,7.36363636 L0.857142857,1.63636364 L5.14285714,1.63636364 L5.14285714,7.36363636 L0.857142857,7.36363636 Z" id="Shape"></path>
            </g>
            <g id="laptop" transform="translate(19.000000, 4.000000)" sketch:type="MSShapeGroup">
                <path d="M17.5,12.25 C18.4625,12.25 19.25,11.4625 19.25,10.5 L19.25,1.75 C19.25,0.7875 18.4625,0 17.5,0 L3.5,0 C2.5375,0 1.75,0.7875 1.75,1.75 L1.75,10.5 C1.75,11.4625 2.5375,12.25 3.5,12.25 L0,12.25 L0,14 L21,14 L21,12.25 L17.5,12.25 L17.5,12.25 Z M3.5,1.75 L17.5,1.75 L17.5,10.5 L3.5,10.5 L3.5,1.75 L3.5,1.75 Z" id="Shape"></path>
            </g>
            <g id="tv" sketch:type="MSShapeGroup">
                <path d="M18,0 L2,0 C0.9,0 0,0.9 0,2 L0,14 C0,15.1 0.9,16 2,16 L6,16 L6,18 L14,18 L14,16 L18,16 C19.1,16 20,15.1 20,14 L20,2 C20,0.9 19.1,0 18,0 L18,0 Z M18,14 L2,14 L2,2 L18,2 L18,14 L18,14 Z" id="Shape"></path>
            </g>
        </g>
    </g>
</svg>